<svg height="512pt" viewBox="-48 0 512 512" width="512pt" xmlns="http://www.w3.org/2000/svg"><g fill="#00e9cc"><path d="m239.96875 408.296875h-71.640625v64.125h79.15625v-64.125zm0 0"/><path d="m296.078125 296.078125h-176.34375v-264.015625h-39.578125v303.59375h223.4375v-39.578125zm0 0"/><path d="m151.796875 40.078125h16.03125v15.03125h-16.03125zm0 0"/><path d="m183.859375 40.078125h16.03125v15.03125h-16.03125zm0 0"/><path d="m215.921875 40.078125h16.03125v15.03125h-16.03125zm0 0"/></g><path d="m151.796875 136.265625h144.28125v15.03125h-144.28125zm0 0"/><path d="m392.265625 112.21875h-56.609375v-8.515625h-15.03125v184.859375h-193.375v-273.53125h129.25v72.140625h79.15625v-18.644531l-68.527344-68.527344h-154.910156v303.59375h223.4375v-144.28125h33.0625v193.375h-321.625v-193.375h33.03125v-15.03125h-48.0625v208.40625h-17.03125v-216.921875c0-4.695313 3.820312-8.515625 8.515625-8.515625h40.078125v-15.03125h-40.078125c-12.984375 0-23.546875 10.5625-23.546875 23.546875v256.5c0 12.984375 10.5625 23.546875 23.546875 23.546875h368.71875c12.984375 0 23.546875-10.5625 23.546875-23.546875v-256.5c0-12.984375-10.5625-23.546875-23.546875-23.546875zm-120.734375-86.5625 46.484375 46.484375h-46.484375zm64.125 118.625v-17.03125h56.609375c4.695313 0 8.515625 3.820312 8.515625 8.515625v216.921875h-17.03125v-208.40625zm56.609375 256.5h-368.71875c-4.695313 0-8.515625-3.820312-8.515625-8.515625v-24.546875h385.75v24.546875c0 4.695313-3.820312 8.515625-8.515625 8.515625zm0 0"/><path d="m256 464.90625h-96.1875c-12.984375 0-23.546875 10.5625-23.546875 23.546875v23.546875h143.28125v-23.546875c0-12.984375-10.5625-23.546875-23.546875-23.546875zm8.515625 32.0625h-113.21875v-8.515625c0-4.695313 3.820313-8.515625 8.515625-8.515625h96.1875c4.695312 0 8.515625 3.820312 8.515625 8.515625zm0 0"/><path d="m199.390625 264.015625v-55.609375h-47.09375v55.609375h15.03125v-16.53125h17.03125v16.53125zm-32.0625-31.5625v-9.015625h17.03125v9.015625zm0 0"/><path d="m151.796875 72.140625h88.171875v15.03125h-88.171875zm0 0"/><path d="m151.796875 104.203125h144.28125v15.03125h-144.28125zm0 0"/><path d="m256 248.484375h40.078125v15.03125h-40.078125zm0 0"/><path d="m272.03125 216.421875h24.046875v15.03125h-24.046875zm0 0"/><path d="m199.890625 376.734375h16.03125v15.03125h-16.03125zm0 0"/></svg>